<svg width="498" height="421" viewBox="0 0 498 421" fill="none" xmlns="http://www.w3.org/2000/svg">
<g clip-path="url(#clip0_16_40)">
<path d="M266.352 59.1334C282.872 46.9354 306.132 42.2592 324.331 51.7754C303.843 60.6667 287.161 76.5147 277.238 96.5156C273.439 104.243 270.019 113.233 262.181 116.804C257.304 119.027 251.548 118.598 246.497 116.803C241.447 115.009 236.954 111.96 232.525 108.944L231.196 108.784C239.08 89.8274 249.831 71.3314 266.352 59.1334Z" fill="#00C1A7"/>
<path d="M324.185 52.1805C307.192 52.7126 290.799 58.5827 277.334 68.9569C274.396 71.1388 271.82 73.77 269.702 76.7536C267.732 79.7267 266.595 83.1728 266.408 86.7337C266.167 90.0505 266.305 93.4711 265.262 96.6716C264.703 98.3019 263.807 99.7959 262.63 101.056C261.454 102.315 260.024 103.312 258.435 103.981C254.519 105.75 250.201 106.007 245.969 106.111C241.27 106.228 236.388 106.274 232.115 108.486C231.597 108.753 231.212 107.935 231.729 107.667C239.163 103.82 247.851 106.33 255.664 104.041C259.31 102.972 262.656 100.799 264.12 97.1631C265.401 93.9837 265.261 90.4562 265.476 87.0958C265.607 83.6193 266.588 80.2278 268.333 77.2175C270.293 74.1357 272.763 71.4097 275.637 69.1563C282.029 63.9798 289.194 59.8399 296.872 56.8882C305.616 53.4709 314.88 51.5738 324.264 51.279C324.845 51.261 324.762 52.1625 324.185 52.1805V52.1805Z" fill="#F1F8E9"/>
<path d="M281.473 65.3614C280.038 62.8671 279.537 59.9444 280.06 57.115C280.582 54.2857 282.093 51.734 284.324 49.9157C284.777 49.5493 285.368 50.2351 284.915 50.602C282.834 52.2914 281.426 54.6684 280.945 57.3041C280.464 59.9398 280.942 62.6604 282.292 64.9751C282.585 65.4785 281.764 65.8618 281.473 65.3614V65.3614Z" fill="#F1F8E9"/>
<path d="M266.308 85.036C271.976 86.6192 278.032 86.0093 283.269 83.3279C283.787 83.0618 284.173 83.8804 283.655 84.1461C278.2 86.9263 271.896 87.5481 266.003 85.8876C265.441 85.729 265.75 84.8782 266.308 85.036Z" fill="#F1F8E9"/>
<path d="M305.573 54.6699C305.927 55.7506 306.544 56.7265 307.368 57.51C308.193 58.2935 309.199 58.86 310.297 59.1587C310.86 59.3101 310.551 60.1608 309.991 60.0104C308.78 59.6747 307.669 59.0477 306.757 58.1841C305.844 57.3205 305.156 56.2466 304.754 55.0562C304.707 54.9471 304.703 54.8242 304.743 54.7123C304.783 54.6005 304.865 54.5081 304.97 54.4539C305.079 54.4033 305.203 54.3976 305.316 54.4381C305.429 54.4785 305.521 54.5618 305.573 54.6699H305.573Z" fill="#F1F8E9"/>
<path d="M338.761 119.771C338.406 119.686 338.052 119.601 337.692 119.522C332.92 118.409 328.066 117.686 323.177 117.36C322.8 117.328 322.417 117.302 322.039 117.282C310.252 116.621 298.445 118.152 287.218 121.798C282.752 123.253 278.403 125.046 274.209 127.161C268.417 130.081 262.369 133.709 256.133 134.522C255.484 134.615 254.829 134.666 254.173 134.678L231.104 110.417C231.079 110.335 231.049 110.259 231.024 110.177L230.058 109.25C230.267 109.126 230.486 109.002 230.695 108.878C230.816 108.805 230.941 108.738 231.062 108.666C231.144 108.619 231.227 108.573 231.298 108.526C231.326 108.51 231.353 108.495 231.375 108.484C231.446 108.438 231.518 108.402 231.584 108.36C232.806 107.662 234.036 106.971 235.273 106.288C235.279 106.283 235.279 106.283 235.289 106.283C244.728 101.1 254.682 96.659 264.993 93.8693C265.304 93.7855 265.619 93.6961 265.94 93.6234C270.595 92.3917 275.343 91.5423 280.137 91.0838C282.762 90.8412 285.399 90.7315 288.035 90.7553C294.848 90.8299 301.607 91.975 308.063 94.1488C320.934 98.484 332.274 106.885 338.309 118.852C338.463 119.158 338.612 119.459 338.761 119.771Z" fill="#00C1A7"/>
<path d="M338.401 120.009C324.513 110.208 307.888 105.03 290.888 105.211C287.227 105.185 283.586 105.736 280.097 106.843C276.733 108.032 273.749 110.099 271.455 112.83C269.265 115.333 267.315 118.147 264.554 120.075C263.126 121.04 261.51 121.694 259.812 121.991C258.114 122.289 256.372 122.225 254.7 121.802C250.508 120.858 246.905 118.465 243.463 116.002C239.642 113.268 235.715 110.367 230.972 109.561C230.397 109.463 230.582 108.578 231.156 108.675C239.409 110.077 244.834 117.309 252.452 120.183C256.007 121.524 259.987 121.802 263.346 119.78C266.284 118.012 268.297 115.112 270.493 112.558C272.692 109.861 275.518 107.743 278.725 106.39C282.146 105.108 285.76 104.418 289.413 104.349C297.634 104.062 305.849 105.068 313.757 107.332C322.797 109.865 331.337 113.925 339.007 119.337C339.482 119.672 338.872 120.342 338.401 120.009L338.401 120.009Z" fill="#F1F8E9"/>
<path d="M296.358 104.831C296.715 101.976 298.076 99.3406 300.197 97.3958C302.319 95.451 305.062 94.3232 307.939 94.2138C308.521 94.1937 308.58 95.0968 307.997 95.117C305.318 95.2139 302.762 96.2647 300.791 98.0798C298.819 99.8948 297.561 102.354 297.245 105.015C297.175 105.593 296.289 105.405 296.358 104.831H296.358Z" fill="#F1F8E9"/>
<path d="M272.399 111.414C275.97 116.088 281.173 119.246 286.969 120.256C287.544 120.356 287.359 121.242 286.785 121.142C280.755 120.079 275.347 116.783 271.642 111.91C271.289 111.445 272.048 110.952 272.399 111.414V111.414Z" fill="#F1F8E9"/>
<path d="M322.041 110.796C321.672 111.872 321.577 113.023 321.764 114.145C321.95 115.266 322.412 116.324 323.109 117.223C323.467 117.683 322.708 118.176 322.352 117.719C321.587 116.723 321.078 115.554 320.869 114.315C320.66 113.076 320.758 111.805 321.155 110.612C321.182 110.497 321.253 110.396 321.353 110.331C321.452 110.266 321.573 110.241 321.69 110.261C321.807 110.286 321.91 110.357 321.975 110.457C322.041 110.557 322.065 110.679 322.041 110.797V110.796Z" fill="#F1F8E9"/>
<path d="M261.992 77.2803H260.205V28.3307C260.205 24.6103 259.472 20.9263 258.047 17.489C256.623 14.0518 254.535 10.9286 251.903 8.29788C249.271 5.66713 246.146 3.58031 242.707 2.15656C239.268 0.732803 235.582 2.0057e-06 231.86 0H128.101C124.378 -8.0225e-06 120.692 0.732778 117.253 2.15652C113.814 3.58026 110.69 5.66708 108.058 8.29782C105.425 10.9286 103.338 14.0517 101.913 17.489C100.489 20.9262 99.7554 24.6102 99.7554 28.3306V296.872C99.7554 304.386 102.742 311.592 108.057 316.905C113.373 322.218 120.583 325.203 128.1 325.203H231.86C239.377 325.203 246.587 322.218 251.903 316.905C257.218 311.592 260.205 304.386 260.205 296.872V112.123H261.992V77.2803Z" fill="#3F3D56"/>
<path d="M233.003 7.37067H219.459C220.082 8.89693 220.32 10.5529 220.152 12.1926C219.983 13.8323 219.414 15.4055 218.494 16.7736C217.574 18.1417 216.332 19.2627 214.877 20.0378C213.421 20.813 211.797 21.2184 210.148 21.2186H150.706C149.057 21.2185 147.433 20.813 145.977 20.0378C144.522 19.2627 143.279 18.1417 142.36 16.7736C141.44 15.4055 140.871 13.8323 140.702 12.1926C140.534 10.5529 140.772 8.89691 141.395 7.37065H128.744C123.13 7.37065 117.746 9.59969 113.777 13.5674C109.807 17.5351 107.577 22.9165 107.577 28.5277V296.675C107.577 299.453 108.124 302.205 109.188 304.772C110.252 307.338 111.811 309.671 113.777 311.635C115.742 313.6 118.076 315.158 120.644 316.222C123.212 317.285 125.965 317.832 128.744 317.832H233.003C235.783 317.832 238.536 317.285 241.104 316.222C243.672 315.158 246.006 313.6 247.971 311.635C249.937 309.671 251.496 307.338 252.56 304.772C253.624 302.205 254.171 299.453 254.171 296.675V28.5277C254.171 22.9165 251.941 17.5351 247.971 13.5674C244.001 9.5997 238.617 7.37067 233.003 7.37067Z" fill="#F1F8E9"/>
<path d="M182.877 231.693C175.2 231.7 167.596 230.194 160.502 227.261C153.407 224.327 146.961 220.025 141.532 214.599C136.104 209.173 131.799 202.73 128.864 195.639C125.929 188.548 124.422 180.948 124.429 173.275C124.419 162.5 127.394 151.932 133.025 142.744C138.657 133.556 146.725 126.106 156.334 121.221C163.299 117.679 170.903 115.566 178.699 115.007C186.494 114.448 194.322 115.454 201.722 117.965C214.828 122.429 225.922 131.397 233.03 143.273C240.139 155.149 242.798 169.161 240.536 182.814C238.274 196.466 231.237 208.873 220.677 217.825C210.118 226.776 196.723 231.69 182.877 231.693L182.877 231.693ZM182.877 117.148C174.01 117.122 165.266 119.218 157.376 123.261C150.479 126.773 144.383 131.672 139.471 137.651C134.558 143.63 130.935 150.559 128.83 158.004C126.724 165.448 126.181 173.248 127.234 180.912C128.288 188.577 130.915 195.941 134.951 202.542C138.988 209.144 144.346 214.84 150.689 219.273C157.033 223.706 164.225 226.781 171.814 228.304C179.403 229.827 187.225 229.765 194.789 228.123C202.353 226.481 209.495 223.294 215.768 218.761C218.801 216.574 221.606 214.087 224.14 211.337C231.55 203.324 236.461 193.324 238.273 182.563C240.084 171.802 238.716 160.747 234.337 150.751C229.958 140.755 222.758 132.252 213.618 126.284C204.478 120.315 193.795 117.14 182.877 117.148Z" fill="#00C1A7"/>
<path d="M56.2295 121.431C57.8338 121.632 59.3745 122.182 60.7431 123.043C62.1117 123.903 63.2748 125.053 64.1506 126.412C65.0263 127.77 65.5934 129.304 65.812 130.905C66.0305 132.506 65.8951 134.136 65.4153 135.679L84.8346 151.847L77.8829 166.038L50.78 142.822C48.2395 141.844 46.146 139.969 44.8962 137.552C43.6464 135.135 43.327 132.344 43.9988 129.707C44.6705 127.07 46.2866 124.771 48.5408 123.246C50.795 121.721 53.5307 121.075 56.2295 121.431L56.2295 121.431Z" fill="#FFB6B6"/>
<path d="M237.597 188.853C237.207 184.669 235.597 177.146 234.231 174.365C230.031 163.378 202.894 154.348 199.25 153.184L198.326 142.913L160.621 138.858L155.838 151.992L142.315 157.063C141.397 157.405 140.566 157.946 139.882 158.647C139.198 159.348 138.677 160.192 138.357 161.118L126.225 164.623L114.253 168.082L72.6593 138.789L70.6956 140.072L57.5699 148.632L55.5449 149.953L109.37 198.49L129.365 193.801L144.401 190.266L145.684 195.474L142.361 213.77C151.99 223.397 164.735 229.281 178.311 230.365C191.886 231.45 205.405 227.665 216.441 219.689L224.982 212.113C230.936 205.679 235.33 197.964 237.826 189.563L237.597 188.853Z" fill="#CECECE"/>
<path d="M191.32 130.458C205.554 125.748 213.272 110.397 208.559 96.1708C203.847 81.9447 188.488 74.2304 174.255 78.9405C160.021 83.6507 152.303 99.0015 157.016 113.228C161.728 127.454 177.087 135.168 191.32 130.458Z" fill="#FFB6B6"/>
<path d="M161.344 73.7662C163.983 69.999 167.944 67.3622 172.439 66.3797C176.883 65.466 181.509 66.3141 185.34 68.7447C189.505 67.0676 193.996 65.955 198.409 66.5206C202.821 67.0863 207.146 69.5497 209.187 73.6081C209.617 74.6595 210.138 75.671 210.745 76.6311C212.544 79.0298 215.886 79.341 218.839 79.4562C217.346 80.3263 215.853 81.1963 214.36 82.0663C215.848 82.7592 217.336 83.4522 218.824 84.1452C216.799 84.9178 214.774 85.6904 212.749 86.463C217.462 90.6037 218.602 97.9727 216.817 104.151C215.128 110 211.254 114.924 206.929 119.14C206.085 115.994 207.013 112.584 207.632 109.327C208.284 105.886 208.389 101.863 205.978 99.4335C204.352 97.7948 201.967 97.2997 199.718 96.9021C188.373 94.8967 176.923 93.5378 165.424 92.8321C163.885 92.6196 162.317 92.7796 160.853 93.2986C158.054 94.5415 156.93 97.9549 156.119 100.982C155.73 95.669 156.041 90.3285 157.042 85.0967C157.809 81.0925 159.018 77.0846 161.344 73.7662Z" fill="#2F2E41"/>
<path d="M196.63 259.216H164.541C163.426 259.216 162.357 258.774 161.569 257.986C160.781 257.198 160.339 256.13 160.339 255.016C160.339 253.902 160.781 252.834 161.569 252.046C162.357 251.259 163.426 250.816 164.541 250.816H196.63C197.744 250.816 198.813 251.259 199.601 252.046C200.389 252.834 200.832 253.902 200.832 255.016C200.832 256.13 200.389 257.198 199.601 257.986C198.813 258.774 197.744 259.216 196.63 259.216Z" fill="#00C1A7"/>
<path d="M91.3332 34.4592H3.06971C2.25636 34.4579 1.47675 34.1341 0.902077 33.5588C0.327406 32.9835 0.00463867 32.2038 0.00463867 31.3908C0.00463867 30.5779 0.327406 29.7982 0.902077 29.2229C1.47675 28.6476 2.25636 28.3238 3.06971 28.3225H91.3332C92.1474 28.3225 92.9282 28.6458 93.5039 29.2212C94.0797 29.7966 94.4031 30.5771 94.4031 31.3908C94.4031 32.2046 94.0797 32.9851 93.5039 33.5605C92.9282 34.1359 92.1474 34.4592 91.3332 34.4592Z" fill="#00C1A7"/>
<path d="M142.294 54.0564H3.06971C2.25557 54.0564 1.47478 53.7332 0.899094 53.1578C0.323411 52.5824 0 51.802 0 50.9883C0 50.1746 0.323411 49.3942 0.899094 48.8188C1.47478 48.2434 2.25557 47.9201 3.06971 47.9201H142.294C143.108 47.9201 143.889 48.2434 144.464 48.8188C145.04 49.3942 145.363 50.1746 145.363 50.9883C145.363 51.802 145.04 52.5824 144.464 53.1578C143.889 53.7332 143.108 54.0564 142.294 54.0564Z" fill="#00C1A7"/>
<path d="M115.539 72.519H3.06971C2.25557 72.519 1.47478 72.1958 0.899094 71.6204C0.323412 71.045 0 70.2646 0 69.4509C0 68.6372 0.323412 67.8568 0.899094 67.2814C1.47478 66.706 2.25557 66.3827 3.06971 66.3827H115.539C116.353 66.3827 117.134 66.706 117.71 67.2814C118.286 67.8568 118.609 68.6372 118.609 69.4509C118.609 70.2646 118.286 71.045 117.71 71.6204C117.134 72.1958 116.353 72.519 115.539 72.519Z" fill="#00625A"/>
<path d="M66.4905 90.9138H3.06971C2.25557 90.9138 1.47478 90.5905 0.899094 90.0151C0.323412 89.4397 0 88.6593 0 87.8456C0 87.0319 0.323412 86.2515 0.899094 85.6761C1.47478 85.1007 2.25557 84.7775 3.06971 84.7775H66.4905C67.3047 84.7775 68.0854 85.1007 68.6611 85.6761C69.2368 86.2515 69.5602 87.0319 69.5602 87.8456C69.5602 88.6593 69.2368 89.4397 68.6611 90.0151C68.0854 90.5905 67.3047 90.9138 66.4905 90.9138Z" fill="#00625A"/>
<path d="M101.525 109.307H3.06962C2.25632 109.306 1.47679 108.982 0.902152 108.407C0.327516 107.831 0.00476074 107.052 0.00476074 106.239C0.00476074 105.426 0.327516 104.646 0.902152 104.071C1.47679 103.496 2.25632 103.172 3.06962 103.171H101.525C102.339 103.172 103.118 103.496 103.693 104.071C104.268 104.646 104.59 105.426 104.59 106.239C104.59 107.052 104.268 107.831 103.693 108.407C103.118 108.982 102.339 109.306 101.525 109.307Z" fill="#00625A"/>
<path d="M379.001 409.482L371.091 409.481L367.327 378.983L379.003 378.984L379.001 409.482Z" fill="#9F616A"/>
<path d="M382.114 420.424L351.911 420.423V420.041C351.912 416.925 353.15 413.937 355.355 411.733C357.559 409.53 360.549 408.292 363.667 408.292H363.668L369.185 404.108L379.478 408.292L382.114 408.292L382.114 420.424Z" fill="#2F2E41"/>
<path d="M374.392 266.147L370.903 223.629L368.162 207.67L383.508 204.282L388.6 226.131L384.164 267.327C385.059 268.423 385.605 269.762 385.733 271.171C385.861 272.58 385.565 273.995 384.882 275.234C384.199 276.473 383.162 277.48 381.902 278.126C380.642 278.771 379.218 279.025 377.813 278.855C376.408 278.686 375.085 278.1 374.016 277.173C372.946 276.247 372.178 275.022 371.81 273.656C371.442 272.289 371.492 270.845 371.952 269.507C372.412 268.169 373.262 266.999 374.392 266.147H374.392Z" fill="#9F616A"/>
<path d="M336.98 409.482L329.069 409.481L325.306 378.983L336.982 378.984L336.98 409.482Z" fill="#9F616A"/>
<path d="M324.32 275.786L320.813 281.849C320.813 281.849 316.959 282.901 318.219 295.456C319.478 308.011 319.532 382.396 325.628 391.549L326.731 399.409L338.243 400.508L338.533 393.534L352.259 296.641C352.259 296.641 360.343 391.759 367.03 394.087L369.446 402.011L379.995 402.016L379.372 392.677L380.052 274.803L324.32 275.786Z" fill="#2F2E41"/>
<path d="M320.464 281.387L320.222 281.325C327.46 254.264 325.372 219.223 320.261 181.596L320.261 181.441L338.738 164.526H354.782L370.688 174.785C380.971 179.923 383.307 190.805 383.33 190.915L383.346 190.992L377.045 212.973L381.792 276.54L381.797 276.614L381.77 276.683C380.234 280.575 376.118 280.021 371.351 279.379C366.594 278.738 349.06 284.601 343.684 284.601C333.178 284.601 321.215 281.58 320.464 281.387Z" fill="#CECECE"/>
<path d="M367.357 183.352L374.25 180.355L383.331 191.484L390.692 227.144L365.479 223.325L367.357 183.352Z" fill="#CECECE"/>
<path d="M261.342 249.11L292.851 220.332L303.801 208.399L315.873 218.456L301.701 235.852L266.388 257.556C266.068 258.934 265.344 260.185 264.307 261.149C263.271 262.112 261.969 262.744 260.571 262.963C259.173 263.181 257.741 262.977 256.459 262.376C255.178 261.776 254.105 260.806 253.379 259.591C252.654 258.376 252.308 256.972 252.387 255.56C252.465 254.147 252.964 252.791 253.82 251.664C254.676 250.537 255.85 249.692 257.19 249.237C258.53 248.781 259.976 248.737 261.342 249.11L261.342 249.11Z" fill="#9F616A"/>
<path d="M292.165 220.645L300.892 209.318C300.964 209.155 308.204 192.983 314.48 185.957C320.918 178.749 325.987 182.435 326.037 182.475L326.163 182.57L326.514 209.188L302.349 238.047L292.165 220.645Z" fill="#CECECE"/>
<path d="M359.687 148.593C360.988 140.579 355.543 133.028 347.525 131.727C339.507 130.427 331.952 135.869 330.651 143.883C329.35 151.897 334.795 159.448 342.813 160.749C350.831 162.049 358.386 156.607 359.687 148.593Z" fill="#9F616A"/>
<path d="M331.722 144.056C331.722 144.056 331.605 138.888 330.951 136.601C330.297 134.314 328.99 132.354 329.644 132.354C330.297 132.354 330.624 130.721 330.624 130.721C330.624 130.721 331.278 130.394 331.605 130.721C331.932 131.048 332.258 128.434 332.258 128.434C332.258 128.434 332.585 127.454 332.912 128.107C333.239 128.761 333.239 128.434 333.566 127.454C333.893 126.474 335.527 125.821 335.527 125.821C335.527 125.821 341.737 126.147 342.718 124.841C343.698 123.534 354.811 124.514 357.099 126.147C359.387 127.781 369.519 133.661 367.885 138.561C366.25 143.461 361.546 154.744 360.367 155.875C358.503 157.664 357.212 158.309 348.392 160.063C346.665 160.406 337.854 154.774 337.854 153.794C337.854 152.814 338.916 149.706 337.209 149.28C334.628 148.635 334.337 151.896 333.684 150.916C333.03 149.936 331.722 144.056 331.722 144.056Z" fill="#2F2E41"/>
<path d="M340.093 420.424L309.89 420.423V420.041C309.89 416.925 311.129 413.937 313.334 411.733C315.538 409.53 318.528 408.292 321.646 408.292H321.647L327.163 404.108L337.457 408.292L340.093 408.292L340.093 420.424Z" fill="#2F2E41"/>
<path d="M497.09 421H2.54264C2.30137 421 2.06999 420.904 1.89939 420.734C1.72879 420.563 1.63293 420.332 1.63293 420.091C1.63293 419.85 1.72879 419.618 1.89939 419.448C2.06999 419.277 2.30137 419.182 2.54264 419.182H497.09C497.332 419.182 497.563 419.277 497.734 419.448C497.904 419.618 498 419.85 498 420.091C498 420.332 497.904 420.563 497.734 420.734C497.563 420.904 497.332 421 497.09 421Z" fill="#00625A"/>
</g>
<defs>
<clipPath id="clip0_16_40">
<rect width="498" height="421" fill="white"/>
</clipPath>
</defs>
</svg>

