<svg width="545" height="326" viewBox="0 0 545 326" fill="none" xmlns="http://www.w3.org/2000/svg">
<g clip-path="url(#clip0_179_11)">
<path d="M417.265 322.313C410.287 316.415 406.049 307.096 407.161 298.024C408.272 288.953 415.156 280.613 424.086 278.687C433.016 276.76 443.195 282.093 445.907 290.82C447.4 273.994 449.12 256.463 458.061 242.134C466.157 229.159 480.18 219.876 495.377 218.215C510.575 216.554 526.575 222.827 536.053 234.828C545.531 246.829 547.852 264.276 541.214 278.055C536.324 288.205 527.315 295.759 517.875 301.904C487.373 321.595 450.789 329.602 414.855 324.453L417.265 322.313Z" fill="#115e59"/>
<path d="M521.025 223.175C508.485 233.394 496.982 244.823 486.68 257.297C470.558 276.752 457.512 298.564 447.996 321.974C447.3 323.682 450.071 324.425 450.76 322.737C466.329 284.69 491.184 251.156 523.052 225.202C524.483 224.037 522.444 222.018 521.025 223.175Z" fill="#E3F2FD"/>
<path d="M175.444 320.711C185.028 312.608 190.849 299.809 189.322 287.35C187.796 274.89 178.341 263.435 166.076 260.789C153.811 258.143 139.83 265.468 136.104 277.455C134.054 254.344 131.692 230.265 119.411 210.584C108.291 192.764 89.0306 180.012 68.1571 177.731C47.2835 175.45 25.3063 184.066 12.2882 200.549C-0.729859 217.033 -3.91728 240.997 5.20024 259.921C11.9168 273.862 24.2911 284.238 37.2562 292.678C78.6196 319.607 129.931 330.838 178.754 323.649" fill="#115e59"/>
<path d="M32.9298 184.543C50.153 198.579 65.9536 214.277 80.1028 231.41C94.2544 248.525 106.713 266.974 117.304 286.496C123.224 297.447 128.543 308.713 133.235 320.245C134.192 322.59 130.385 323.611 129.439 321.292C121.127 300.962 110.844 281.497 98.7376 263.175C86.6896 244.919 72.9001 227.875 57.5627 212.283C48.8878 203.468 39.735 195.138 30.1459 187.329C28.1804 185.727 30.9805 182.955 32.9298 184.543L32.9298 184.543Z" fill="#E3F2FD"/>
<path d="M391.21 325.286H162.56V90.5663C162.56 40.6278 203.167 0 253.08 0H300.69C350.603 0 391.21 40.6278 391.21 90.5663V325.286Z" fill="#115e59"/>
<path d="M343.601 325.286H162.56V90.5662C162.51 71.431 168.567 52.7793 179.847 37.3269C180.263 36.7598 180.678 36.2001 181.106 35.6464C186.562 28.4864 193.055 22.1807 200.371 16.9374C200.784 16.6366 201.199 16.341 201.62 16.0453C207.742 11.8068 214.364 8.34195 221.336 5.72955C221.75 5.57255 222.171 5.41525 222.593 5.26437C228.898 3.01311 235.434 1.47101 242.08 0.666534C242.492 0.61022 242.915 0.566154 243.338 0.522086C249.815 -0.170774 256.347 -0.170774 262.824 0.522086C263.246 0.566154 263.669 0.610215 264.086 0.667137C270.73 1.47166 277.265 3.01357 283.568 5.2644C283.99 5.41528 284.411 5.57257 284.826 5.72987C291.712 8.30933 298.256 11.7225 304.313 15.8932C304.733 16.1824 305.155 16.4781 305.57 16.7737C309.67 19.7024 313.522 22.9651 317.086 26.5285C319.943 29.3868 322.606 32.4336 325.057 35.6483C325.483 36.2001 325.898 36.7598 326.313 37.326C337.594 52.7786 343.651 71.4306 343.601 90.5662V325.286Z" fill="#14b8a6"/>
<path d="M328.879 220.305C334.415 220.305 338.902 215.815 338.902 210.277C338.902 204.738 334.415 200.249 328.879 200.249C323.344 200.249 318.856 204.738 318.856 210.277C318.856 215.815 323.344 220.305 328.879 220.305Z" fill="#99f6e4"/>
<path d="M372.479 318.256H364.799L361.145 288.618L372.48 288.619L372.479 318.256Z" fill="#FFB8B8"/>
<path d="M359.313 316.061H374.124V325.391H349.987C349.987 324.166 350.228 322.952 350.697 321.82C351.166 320.688 351.852 319.66 352.718 318.793C353.584 317.927 354.612 317.24 355.744 316.771C356.875 316.302 358.088 316.061 359.313 316.061V316.061Z" fill="#2F2E41"/>
<path d="M410.691 318.256H403.011L399.357 288.618L410.693 288.619L410.691 318.256Z" fill="#FFB8B8"/>
<path d="M397.525 316.061H412.337V325.391H388.2C388.2 324.166 388.441 322.952 388.909 321.82C389.378 320.688 390.065 319.66 390.931 318.793C391.797 317.927 392.825 317.24 393.956 316.771C395.088 316.302 396.301 316.061 397.525 316.061V316.061Z" fill="#2F2E41"/>
<path d="M333.952 212.263C333.399 211.449 333.032 210.523 332.876 209.551C332.72 208.579 332.778 207.585 333.048 206.638C333.317 205.692 333.791 204.816 334.435 204.072C335.08 203.328 335.879 202.735 336.778 202.333L362.885 130.34L375.731 137.354L345.922 206.154C346.496 207.709 346.479 209.42 345.876 210.963C345.273 212.507 344.125 213.775 342.649 214.528C341.174 215.281 339.474 215.467 337.871 215.049C336.268 214.632 334.873 213.64 333.952 212.263V212.263Z" fill="#FFB8B8"/>
<path d="M406.768 225.791C405.915 225.301 405.179 224.631 404.613 223.826C404.046 223.021 403.663 222.101 403.49 221.132C403.318 220.163 403.359 219.168 403.613 218.217C403.866 217.266 404.324 216.382 404.956 215.627L396.868 139.47L411.488 140.139L414.849 215.049C416.046 216.195 416.781 217.74 416.915 219.392C417.05 221.043 416.574 222.687 415.577 224.011C414.581 225.335 413.135 226.248 411.511 226.576C409.887 226.904 408.2 226.625 406.768 225.791V225.791Z" fill="#FFB8B8"/>
<path d="M383.446 117.005C391.943 117.005 398.832 110.113 398.832 101.611C398.832 93.1096 391.943 86.2175 383.446 86.2175C374.948 86.2175 368.06 93.1096 368.06 101.611C368.06 110.113 374.948 117.005 383.446 117.005Z" fill="#FFB8B8"/>
<path d="M406.67 208.471H360.284L360.34 208.11C360.423 207.57 368.607 153.933 362.571 136.386C361.966 134.662 362.019 132.774 362.721 131.087C363.423 129.399 364.724 128.031 366.373 127.246H366.374C375.001 123.181 391.561 118.176 405.538 130.323C407.595 132.139 409.201 134.41 410.23 136.955C411.258 139.5 411.681 142.25 411.464 144.986L406.67 208.471Z" fill="#99f6e4"/>
<path d="M369.193 161.86L348.31 157.621L358.099 134.413C358.685 132.165 360.138 130.241 362.139 129.064C364.141 127.886 366.527 127.551 368.775 128.132C371.023 128.712 372.95 130.161 374.131 132.161C375.313 134.161 375.654 136.548 375.079 138.798L369.193 161.86Z" fill="#99f6e4"/>
<path d="M395.94 169.731L394.684 140.936C393.732 135.524 396.829 130.407 401.592 129.57C406.356 128.737 411.009 132.491 411.965 137.944L416.684 164.849L395.94 169.731Z" fill="#99f6e4"/>
<path d="M405.127 205.023C412.59 233.464 413.405 269.623 411.391 309.065L401.368 307.811L383.201 232.601L373.178 309.065L361.903 308.438C358.534 267.054 355.254 231.526 360.65 208.157L405.127 205.023Z" fill="#2F2E41"/>
<path d="M393.583 113.508C390.713 116.567 385.383 114.925 385.009 110.746C384.979 110.421 384.981 110.095 385.015 109.771C385.208 107.92 386.277 106.239 386.021 104.284C385.963 103.798 385.782 103.334 385.495 102.938C383.207 99.8731 377.838 104.308 375.679 101.534C374.356 99.833 375.912 97.1548 374.896 95.2536C373.555 92.7444 369.585 93.9822 367.094 92.608C364.324 91.079 364.49 86.826 366.313 84.2391C368.538 81.0843 372.437 79.4009 376.288 79.1582C380.139 78.9156 383.964 79.9572 387.559 81.3591C391.644 82.9519 395.695 85.1531 398.209 88.747C401.266 93.1175 401.561 98.9931 400.032 104.104C399.102 107.212 395.927 111.01 393.583 113.508Z" fill="#2F2E41"/>
<path d="M526.195 325.69H63.7009C63.5034 325.689 63.3143 325.61 63.1749 325.47C63.0354 325.331 62.9572 325.141 62.9572 324.944C62.9572 324.746 63.0354 324.556 63.1749 324.417C63.3143 324.277 63.5034 324.198 63.7009 324.197H526.195C526.393 324.198 526.582 324.277 526.721 324.417C526.861 324.556 526.939 324.746 526.939 324.944C526.939 325.141 526.861 325.331 526.721 325.47C526.582 325.61 526.393 325.689 526.195 325.69V325.69Z" fill="#3F3D56"/>
<path d="M293.799 257.283H212.362C211.29 257.289 210.259 256.869 209.495 256.115C208.732 255.362 208.299 254.336 208.29 253.263V71.3971C208.299 70.3241 208.732 69.2981 209.495 68.5444C210.259 67.7906 211.29 67.3705 212.362 67.3763H293.799C294.871 67.3705 295.902 67.7906 296.666 68.5444C297.429 69.2981 297.862 70.3241 297.871 71.3971V253.263C297.862 254.336 297.429 255.362 296.666 256.115C295.902 256.869 294.871 257.289 293.799 257.283V257.283Z" fill="#E3F2FD"/>
<path d="M297.871 126.222H208.29V127.476H297.871V126.222Z" fill="#14b8a6"/>
<path d="M298.184 197.741H208.603V198.995H298.184V197.741Z" fill="#14b8a6"/>
<path d="M237.733 67.3762H236.48V257.91H237.733V67.3762Z" fill="#14b8a6"/>
<path d="M269.055 67.3762H267.802V257.91H269.055V67.3762Z" fill="#14b8a6"/>
</g>
<defs>
<clipPath id="clip0_179_11">
<rect width="545" height="326" fill="white"/>
</clipPath>
</defs>
</svg>
